<?xml version="1.0" encoding="UTF-8"?>
<svg id="Layer_2" data-name="Layer 2" xmlns="http://www.w3.org/2000/svg" viewBox="0 0 10 15.25">
  <defs>
    <style>
      .cls-1 {
        fill: #c4c4c4;
      }
    </style>
  </defs>
  <g id="Layer_1-2" data-name="Layer 1">
    <g>
      <path class="cls-1" d="M.11,9.97l.92-.92c.15-.15,.4-.15,.55,0l3.15,3.15c.15,.15,.4,.15,.55,0l3.15-3.15c.15-.15,.4-.15,.55,0l.92,.92c.15,.15,.15,.4,0,.55l-4.61,4.61c-.15,.15-.4,.15-.55,0L.11,10.52c-.15-.15-.15-.4,0-.55Z"/>
      <path class="cls-1" d="M9.89,5.27l-.92,.92c-.15,.15-.4,.15-.55,0l-3.15-3.15c-.15-.15-.4-.15-.55,0L1.58,6.19c-.15,.15-.4,.15-.55,0L.11,5.27c-.15-.15-.15-.4,0-.55L4.73,.11c.15-.15,.4-.15,.55,0l4.61,4.61c.15,.15,.15,.4,0,.55Z"/>
    </g>
  </g>
</svg>